# xmcd
# 
# Track frame offsets:
#     150
#     15931
#     35395
# 
# Disc length: 716
# 
# Revision: 1
# Processed by: cddbd v1.5.2PL0 Copyright (c) Steve Scherf et al.
# Submitted via: fre:ac v1.0.17
# 
DISCID=1302ca03
DTITLE=Herbert Grönemeyer - Fernweh (MCD)
DYEAR=2011
DGENRE=Pop
TTITLE0=Fernweh (Single Version)
TTITLE1=Bist Du taub (live Ö-Tour '88)
TTITLE2=Fernweh (Madame Fortune Remix)
EXTD=
EXTT0=
EXTT1=
EXTT2=
PLAYORDER=
